<svg width="101" height="75" viewBox="0 0 101 75" fill="none" xmlns="http://www.w3.org/2000/svg">
<path fill-rule="evenodd" clip-rule="evenodd" d="M55.3228 64.3559L59.1529 64.3559V64.3396C69.5202 64.3396 77.9417 55.712 77.9417 45.0909V30.8913C77.9417 20.2702 69.5202 11.6426 59.1529 11.6426H55.3124H54.033H52.7604V12.9498C52.7604 12.9825 52.7445 15.6459 51.7397 19.2081L51.7875 19.4042C52.0587 20.548 52.6009 21.5937 53.3665 22.4598L54.1959 19.927C54.8744 17.5338 55.1406 15.5148 55.245 14.2733H59.1529C68.1007 14.2733 75.3897 21.7408 75.3897 30.9076V45.1072C75.3897 54.274 68.1007 61.7415 59.1529 61.7415H55.295C55.1088 57.3558 53.9904 53.3357 51.9496 49.7529C55.0625 44.7224 59.6972 41.1841 65.7409 39.2248L65.709 36.7247C65.6611 36.7247 61.2111 35.3848 56.7611 31.7736C50.8597 26.9696 47.8612 20.6297 47.8612 12.9498V11.6426H45.3092V11.6426H41.4661C31.0987 11.6426 22.6772 20.2702 22.6772 30.9077V45.1072C22.6772 55.7283 31.0987 64.3559 41.4661 64.3559H46.586V64.3559H47.8612V64.3396V63.0324C47.8612 62.9997 47.8931 60.2545 48.9298 56.627C49.3437 55.1852 49.8651 53.7983 50.4809 52.4799C52.0046 55.655 52.7709 59.2047 52.7709 63.0487V64.3559L54.033 64.3559L55.3228 64.3559ZM45.3761 61.7252C45.4826 60.457 45.7585 58.3766 46.4735 55.9081C47.1753 53.4734 48.1482 51.1857 49.3604 49.0942C52.2633 44.1105 56.4262 40.3849 61.7853 37.9829C59.967 37.1169 57.5746 35.7933 55.1821 33.8325C53.539 32.4954 51.7788 30.7658 50.2063 28.591C47.3817 32.7442 43.576 35.9063 38.8336 38.0319C41.258 39.1757 44.6872 41.1692 47.8133 44.3392L48.3875 44.9274C47.7683 45.5455 47.2755 46.2769 46.9249 47.0894L46.0269 46.1856C41.0347 41.1038 34.9737 39.2737 34.9099 39.2574L34.878 36.7573C40.9276 34.796 45.5654 31.2528 48.6784 26.2144C46.8702 23.0278 45.5417 19.079 45.3368 14.257H41.4661C32.5183 14.257 25.2292 21.7245 25.2292 30.8913V45.0909C25.2292 54.2577 32.5183 61.7252 41.4661 61.7252H45.3761ZM46.9249 47.0894L46.9201 47.1006H46.9361L46.9249 47.0894Z" fill="url(#paint0_linear_3717_31663)"/>
<line x1="8.81689" y1="11.1426" x2="91.8029" y2="11.1426" stroke="url(#paint1_linear_3717_31663)"/>
<line x1="23.1772" y1="1.46973" x2="23.1772" y2="74.5042" stroke="url(#paint2_linear_3717_31663)"/>
<line x1="35.2625" y1="1.46973" x2="35.2624" y2="74.5042" stroke="url(#paint3_linear_3717_31663)"/>
<line x1="66.1904" y1="1.46973" x2="66.1904" y2="74.5042" stroke="url(#paint4_linear_3717_31663)"/>
<line x1="12.2184" y1="1.01148" x2="89.0898" y2="74.0217" stroke="url(#paint5_linear_3717_31663)"/>
<line y1="-0.5" x2="106.017" y2="-0.5" transform="matrix(-0.725082 0.688662 0.688662 0.725082 88.7446 1.37402)" stroke="url(#paint6_linear_3717_31663)"/>
<line x1="78.4414" y1="1.37402" x2="78.4414" y2="74.4085" stroke="url(#paint7_linear_3717_31663)"/>
<line x1="0.0698242" y1="37.3789" x2="100.55" y2="37.3789" stroke="url(#paint8_linear_3717_31663)"/>
<line x1="8.81689" y1="63.8555" x2="91.8029" y2="63.8555" stroke="url(#paint9_linear_3717_31663)"/>
<defs>
<linearGradient id="paint0_linear_3717_31663" x1="56.6469" y1="16.5358" x2="26.5339" y2="69.05" gradientUnits="userSpaceOnUse">
<stop offset="0.405" stop-color="#FFF5D9"/>
<stop offset="1" stop-color="#E1FF26"/>
</linearGradient>
<linearGradient id="paint1_linear_3717_31663" x1="8.81689" y1="12.1426" x2="91.8029" y2="12.1426" gradientUnits="userSpaceOnUse">
<stop stop-color="white" stop-opacity="0"/>
<stop offset="0.21" stop-color="white" stop-opacity="0.61"/>
<stop offset="0.82" stop-color="#FFB2B2"/>
<stop offset="1" stop-color="white" stop-opacity="0"/>
</linearGradient>
<linearGradient id="paint2_linear_3717_31663" x1="22.1772" y1="1.46973" x2="22.1772" y2="74.5042" gradientUnits="userSpaceOnUse">
<stop stop-color="white" stop-opacity="0"/>
<stop offset="0.21" stop-color="white" stop-opacity="0.61"/>
<stop offset="0.82" stop-color="#FFB2B2"/>
<stop offset="1" stop-color="white" stop-opacity="0"/>
</linearGradient>
<linearGradient id="paint3_linear_3717_31663" x1="34.2625" y1="1.46973" x2="34.2624" y2="74.5042" gradientUnits="userSpaceOnUse">
<stop stop-color="white" stop-opacity="0"/>
<stop offset="0.21" stop-color="white" stop-opacity="0.61"/>
<stop offset="0.82" stop-color="#FFB2B2"/>
<stop offset="1" stop-color="white" stop-opacity="0"/>
</linearGradient>
<linearGradient id="paint4_linear_3717_31663" x1="65.1904" y1="1.46973" x2="65.1904" y2="74.5042" gradientUnits="userSpaceOnUse">
<stop stop-color="white" stop-opacity="0"/>
<stop offset="0.21" stop-color="white" stop-opacity="0.61"/>
<stop offset="0.82" stop-color="#FFB2B2"/>
<stop offset="1" stop-color="white" stop-opacity="0"/>
</linearGradient>
<linearGradient id="paint5_linear_3717_31663" x1="11.5297" y1="1.73656" x2="88.4011" y2="74.7468" gradientUnits="userSpaceOnUse">
<stop stop-color="white" stop-opacity="0"/>
<stop offset="0.21" stop-color="white" stop-opacity="0.61"/>
<stop offset="0.82" stop-color="#FFB2B2"/>
<stop offset="1" stop-color="white" stop-opacity="0"/>
</linearGradient>
<linearGradient id="paint6_linear_3717_31663" x1="0" y1="0.5" x2="106.017" y2="0.5" gradientUnits="userSpaceOnUse">
<stop stop-color="white" stop-opacity="0"/>
<stop offset="0.21" stop-color="white" stop-opacity="0.61"/>
<stop offset="0.82" stop-color="#FFB2B2"/>
<stop offset="1" stop-color="white" stop-opacity="0"/>
</linearGradient>
<linearGradient id="paint7_linear_3717_31663" x1="77.4414" y1="1.37402" x2="77.4414" y2="74.4085" gradientUnits="userSpaceOnUse">
<stop stop-color="white" stop-opacity="0"/>
<stop offset="0.21" stop-color="white" stop-opacity="0.61"/>
<stop offset="0.82" stop-color="#FFB2B2"/>
<stop offset="1" stop-color="white" stop-opacity="0"/>
</linearGradient>
<linearGradient id="paint8_linear_3717_31663" x1="0.0698242" y1="38.3789" x2="100.55" y2="38.3789" gradientUnits="userSpaceOnUse">
<stop stop-color="white" stop-opacity="0"/>
<stop offset="0.21" stop-color="white" stop-opacity="0.61"/>
<stop offset="0.82" stop-color="#FFB2B2"/>
<stop offset="1" stop-color="white" stop-opacity="0"/>
</linearGradient>
<linearGradient id="paint9_linear_3717_31663" x1="8.81689" y1="64.8555" x2="91.8029" y2="64.8555" gradientUnits="userSpaceOnUse">
<stop stop-color="white" stop-opacity="0"/>
<stop offset="0.21" stop-color="white" stop-opacity="0.61"/>
<stop offset="0.82" stop-color="#FFB2B2"/>
<stop offset="1" stop-color="white" stop-opacity="0"/>
</linearGradient>
</defs>
</svg>
