<svg width="47" height="9" viewBox="0 0 47 9" fill="none" xmlns="http://www.w3.org/2000/svg">
<path d="M0.36 8.55078V0.150781H1.536V3.33078C1.536 3.46678 1.52 3.61478 1.488 3.77478C1.456 3.93478 1.42 4.08278 1.38 4.21878H1.404C1.444 4.09078 1.496 3.95078 1.56 3.79878C1.632 3.64678 1.716 3.52278 1.812 3.42678C1.948 3.28278 2.108 3.15478 2.292 3.04278C2.484 2.92278 2.68 2.82278 2.88 2.74278C3.088 2.65478 3.3 2.59078 3.516 2.55078C3.732 2.50278 3.94 2.47878 4.14 2.47878C5.028 2.48678 5.724 2.74278 6.228 3.24678C6.74 3.74278 6.996 4.51078 6.996 5.55078C6.996 6.59078 6.74 7.36278 6.228 7.86678C5.724 8.37078 5.028 8.62278 4.14 8.62278C3.94 8.62278 3.732 8.60278 3.516 8.56278C3.3 8.52278 3.088 8.46278 2.88 8.38278C2.68 8.30278 2.484 8.21078 2.292 8.10678C2.108 7.99478 1.948 7.86678 1.812 7.72278C1.716 7.62678 1.632 7.50278 1.56 7.35078C1.496 7.19878 1.444 7.05878 1.404 6.93078L1.38 6.94278C1.42 7.07078 1.456 7.21478 1.488 7.37478C1.52 7.53478 1.536 7.68278 1.536 7.81878V8.55078H0.36ZM1.536 5.55078C1.536 5.87078 1.6 6.15878 1.728 6.41478C1.864 6.67078 2.036 6.88678 2.244 7.06278C2.452 7.23878 2.688 7.37478 2.952 7.47078C3.224 7.55878 3.492 7.60278 3.756 7.60278C4.492 7.60278 5.02 7.43878 5.34 7.11078C5.66 6.78278 5.82 6.26278 5.82 5.55078C5.82 4.84678 5.656 4.32278 5.328 3.97878C5.008 3.63478 4.484 3.45878 3.756 3.45078C3.492 3.45078 3.224 3.49878 2.952 3.59478C2.688 3.69078 2.452 3.83078 2.244 4.01478C2.036 4.19078 1.864 4.41078 1.728 4.67478C1.6 4.93078 1.536 5.22278 1.536 5.55078ZM9.62906 8.62278C9.19706 8.62278 8.83706 8.53878 8.54906 8.37078C8.26106 8.20278 8.03306 7.97878 7.86506 7.69878C7.69706 7.41878 7.57706 7.09478 7.50506 6.72678C7.44106 6.35878 7.40906 5.97878 7.40906 5.58678V2.52678H8.58506V5.58678C8.58506 6.22678 8.70506 6.69478 8.94506 6.99078C9.19306 7.28678 9.56106 7.43478 10.0491 7.43478C10.1771 7.43478 10.3371 7.40278 10.5291 7.33878C10.7211 7.26678 10.9051 7.13478 11.0811 6.94278C11.2571 6.75078 11.4051 6.48278 11.5251 6.13878C11.6531 5.78678 11.7171 5.33078 11.7171 4.77078V2.52678H12.8931V8.52678H11.7171V7.37478C11.7171 7.24678 11.7251 7.11078 11.7411 6.96678C11.7651 6.82278 11.7891 6.69078 11.8131 6.57078L11.7891 6.55878C11.7331 6.83878 11.6491 7.10678 11.5371 7.36278C11.4251 7.61078 11.2811 7.83078 11.1051 8.02278C10.9291 8.20678 10.7171 8.35478 10.4691 8.46678C10.2291 8.57078 9.94906 8.62278 9.62906 8.62278ZM14.8342 6.61878C14.8902 7.02678 15.0702 7.31078 15.3742 7.47078C15.6782 7.62278 16.0982 7.69878 16.6342 7.69878C17.2102 7.69878 17.6462 7.61478 17.9422 7.44678C18.2382 7.27878 18.3862 6.99878 18.3862 6.60678C18.3862 6.41478 18.2702 6.27878 18.0382 6.19878C17.8142 6.11878 17.5342 6.05878 17.1982 6.01878C16.8622 5.97078 16.4942 5.92678 16.0942 5.88678C15.6942 5.83878 15.3262 5.76278 14.9902 5.65878C14.6542 5.55478 14.3702 5.39878 14.1382 5.19078C13.9142 4.98278 13.8022 4.69478 13.8022 4.32678C13.8022 4.03878 13.8542 3.79478 13.9582 3.59478C14.0702 3.38678 14.2102 3.21478 14.3782 3.07878C14.5462 2.94278 14.7342 2.83478 14.9422 2.75478C15.1582 2.66678 15.3702 2.60278 15.5782 2.56278C15.7862 2.52278 15.9862 2.49878 16.1782 2.49078C16.3702 2.47478 16.5262 2.46678 16.6462 2.46678C16.8782 2.46678 17.1422 2.49078 17.4382 2.53878C17.7422 2.57878 18.0302 2.65878 18.3022 2.77878C18.5822 2.89878 18.8222 3.06278 19.0222 3.27078C19.2302 3.47878 19.3582 3.75078 19.4062 4.08678L18.3382 4.24278C18.2742 3.90678 18.1022 3.68278 17.8222 3.57078C17.5502 3.45078 17.1502 3.39078 16.6222 3.39078C16.0782 3.39078 15.6662 3.45878 15.3862 3.59478C15.1142 3.73078 14.9782 3.98678 14.9782 4.36278C14.9782 4.55478 15.0902 4.69478 15.3142 4.78278C15.5462 4.86278 15.8302 4.92678 16.1662 4.97478C16.5022 5.02278 16.8702 5.06678 17.2702 5.10678C17.6702 5.14678 18.0382 5.21878 18.3742 5.32278C18.7102 5.42678 18.9902 5.57878 19.2142 5.77878C19.4462 5.97878 19.5622 6.26278 19.5622 6.63078C19.5622 7.08678 19.4422 7.45078 19.2022 7.72278C18.9702 7.98678 18.6902 8.18678 18.3622 8.32278C18.0422 8.45078 17.7182 8.53078 17.3902 8.56278C17.0622 8.60278 16.8022 8.62278 16.6102 8.62278C16.4982 8.62278 16.3502 8.61478 16.1662 8.59878C15.9822 8.58278 15.7862 8.55478 15.5782 8.51478C15.3702 8.46678 15.1582 8.40278 14.9422 8.32278C14.7342 8.24278 14.5382 8.13478 14.3542 7.99878C14.1782 7.86278 14.0302 7.69878 13.9102 7.50678C13.7902 7.31478 13.7182 7.08678 13.6942 6.82278L14.8342 6.61878ZM21.1606 1.17078V0.150781H19.9486V1.17078H21.1606ZM19.9726 2.55078H21.1366V8.55078H19.9726V2.55078ZM21.6422 2.55078H22.8182V3.78678C22.8182 3.90678 22.8062 4.04278 22.7822 4.19478C22.7662 4.33878 22.7462 4.47078 22.7222 4.59078L22.7462 4.60278C22.7702 4.48278 22.7982 4.35078 22.8302 4.20678C22.8702 4.06278 22.9222 3.93478 22.9862 3.82278C23.2342 3.34278 23.5542 2.99478 23.9462 2.77878C24.3382 2.56278 24.7382 2.45478 25.1462 2.45478C25.5222 2.45478 25.8382 2.53878 26.0942 2.70678C26.3582 2.87478 26.5662 3.09878 26.7182 3.37878C26.8782 3.65878 26.9902 3.98278 27.0542 4.35078C27.1262 4.71078 27.1622 5.09078 27.1622 5.49078V8.55078H25.9862V5.49078C25.9862 4.91478 25.8822 4.46278 25.6742 4.13478C25.4662 3.79878 25.1582 3.63078 24.7502 3.63078C24.5982 3.63078 24.4102 3.66678 24.1862 3.73878C23.9702 3.80278 23.7582 3.93478 23.5502 4.13478C23.3502 4.32678 23.1782 4.59878 23.0342 4.95078C22.8902 5.29478 22.8182 5.74678 22.8182 6.30678V8.55078H21.6422V2.55078ZM30.852 8.62278C30.412 8.62278 29.992 8.56278 29.592 8.44278C29.192 8.31478 28.84 8.12278 28.536 7.86678C28.24 7.61078 28.004 7.29078 27.828 6.90678C27.652 6.52278 27.564 6.07078 27.564 5.55078C27.564 5.03078 27.652 4.57878 27.828 4.19478C28.004 3.81078 28.24 3.49078 28.536 3.23478C28.84 2.97878 29.192 2.79078 29.592 2.67078C29.992 2.54278 30.412 2.47878 30.852 2.47878C31.292 2.47878 31.704 2.54278 32.088 2.67078C32.48 2.79878 32.82 2.99078 33.108 3.24678C33.396 3.49478 33.624 3.81078 33.792 4.19478C33.96 4.57878 34.044 5.03078 34.044 5.55078C34.044 5.63878 34.044 5.69878 34.044 5.73078C34.044 5.75478 34.036 5.80678 34.02 5.88678H28.788C28.876 6.48678 29.108 6.93478 29.484 7.23078C29.86 7.52678 30.324 7.67078 30.876 7.66278C31.34 7.65478 31.744 7.56678 32.088 7.39878C32.44 7.23078 32.7 6.92278 32.868 6.47478L33.948 6.61878C33.836 6.97878 33.676 7.28678 33.468 7.54278C33.268 7.79878 33.032 8.00678 32.76 8.16678C32.488 8.31878 32.188 8.43478 31.86 8.51478C31.54 8.58678 31.204 8.62278 30.852 8.62278ZM30.876 3.40278C30.612 3.40278 30.348 3.45478 30.084 3.55878C29.82 3.65478 29.588 3.80678 29.388 4.01478C29.188 4.21478 29.028 4.47078 28.908 4.78278C28.796 5.09478 28.756 5.46278 28.788 5.88678C28.836 5.72678 28.888 5.59878 28.944 5.50278C29.008 5.40678 29.08 5.33478 29.16 5.28678C29.248 5.23878 29.344 5.20678 29.448 5.19078C29.56 5.17478 29.688 5.16678 29.832 5.16678H32.928C32.84 4.55078 32.612 4.10678 32.244 3.83478C31.884 3.55478 31.428 3.41078 30.876 3.40278ZM35.4953 6.61878C35.5513 7.02678 35.7313 7.31078 36.0353 7.47078C36.3393 7.62278 36.7593 7.69878 37.2953 7.69878C37.8713 7.69878 38.3073 7.61478 38.6033 7.44678C38.8993 7.27878 39.0473 6.99878 39.0473 6.60678C39.0473 6.41478 38.9313 6.27878 38.6993 6.19878C38.4753 6.11878 38.1953 6.05878 37.8593 6.01878C37.5233 5.97078 37.1553 5.92678 36.7553 5.88678C36.3553 5.83878 35.9873 5.76278 35.6513 5.65878C35.3153 5.55478 35.0313 5.39878 34.7993 5.19078C34.5753 4.98278 34.4633 4.69478 34.4633 4.32678C34.4633 4.03878 34.5153 3.79478 34.6193 3.59478C34.7313 3.38678 34.8713 3.21478 35.0393 3.07878C35.2073 2.94278 35.3953 2.83478 35.6033 2.75478C35.8193 2.66678 36.0313 2.60278 36.2393 2.56278C36.4473 2.52278 36.6473 2.49878 36.8393 2.49078C37.0313 2.47478 37.1873 2.46678 37.3073 2.46678C37.5393 2.46678 37.8033 2.49078 38.0993 2.53878C38.4033 2.57878 38.6913 2.65878 38.9633 2.77878C39.2433 2.89878 39.4833 3.06278 39.6833 3.27078C39.8913 3.47878 40.0193 3.75078 40.0673 4.08678L38.9993 4.24278C38.9353 3.90678 38.7633 3.68278 38.4833 3.57078C38.2113 3.45078 37.8113 3.39078 37.2833 3.39078C36.7393 3.39078 36.3273 3.45878 36.0473 3.59478C35.7753 3.73078 35.6393 3.98678 35.6393 4.36278C35.6393 4.55478 35.7513 4.69478 35.9753 4.78278C36.2073 4.86278 36.4913 4.92678 36.8273 4.97478C37.1633 5.02278 37.5313 5.06678 37.9313 5.10678C38.3313 5.14678 38.6993 5.21878 39.0353 5.32278C39.3713 5.42678 39.6513 5.57878 39.8753 5.77878C40.1073 5.97878 40.2233 6.26278 40.2233 6.63078C40.2233 7.08678 40.1033 7.45078 39.8633 7.72278C39.6313 7.98678 39.3513 8.18678 39.0233 8.32278C38.7033 8.45078 38.3793 8.53078 38.0513 8.56278C37.7233 8.60278 37.4633 8.62278 37.2713 8.62278C37.1593 8.62278 37.0113 8.61478 36.8273 8.59878C36.6433 8.58278 36.4473 8.55478 36.2393 8.51478C36.0313 8.46678 35.8193 8.40278 35.6033 8.32278C35.3953 8.24278 35.1993 8.13478 35.0153 7.99878C34.8393 7.86278 34.6913 7.69878 34.5713 7.50678C34.4513 7.31478 34.3793 7.08678 34.3553 6.82278L35.4953 6.61878ZM41.6537 6.61878C41.7097 7.02678 41.8897 7.31078 42.1937 7.47078C42.4977 7.62278 42.9177 7.69878 43.4537 7.69878C44.0297 7.69878 44.4657 7.61478 44.7617 7.44678C45.0577 7.27878 45.2057 6.99878 45.2057 6.60678C45.2057 6.41478 45.0897 6.27878 44.8577 6.19878C44.6337 6.11878 44.3537 6.05878 44.0177 6.01878C43.6817 5.97078 43.3137 5.92678 42.9137 5.88678C42.5137 5.83878 42.1457 5.76278 41.8097 5.65878C41.4737 5.55478 41.1897 5.39878 40.9577 5.19078C40.7337 4.98278 40.6217 4.69478 40.6217 4.32678C40.6217 4.03878 40.6737 3.79478 40.7777 3.59478C40.8897 3.38678 41.0297 3.21478 41.1977 3.07878C41.3657 2.94278 41.5537 2.83478 41.7617 2.75478C41.9777 2.66678 42.1897 2.60278 42.3977 2.56278C42.6057 2.52278 42.8057 2.49878 42.9977 2.49078C43.1897 2.47478 43.3457 2.46678 43.4657 2.46678C43.6977 2.46678 43.9617 2.49078 44.2577 2.53878C44.5617 2.57878 44.8497 2.65878 45.1217 2.77878C45.4017 2.89878 45.6417 3.06278 45.8417 3.27078C46.0497 3.47878 46.1777 3.75078 46.2257 4.08678L45.1577 4.24278C45.0937 3.90678 44.9217 3.68278 44.6417 3.57078C44.3697 3.45078 43.9697 3.39078 43.4417 3.39078C42.8977 3.39078 42.4857 3.45878 42.2057 3.59478C41.9337 3.73078 41.7977 3.98678 41.7977 4.36278C41.7977 4.55478 41.9097 4.69478 42.1337 4.78278C42.3657 4.86278 42.6497 4.92678 42.9857 4.97478C43.3217 5.02278 43.6897 5.06678 44.0897 5.10678C44.4897 5.14678 44.8577 5.21878 45.1937 5.32278C45.5297 5.42678 45.8097 5.57878 46.0337 5.77878C46.2657 5.97878 46.3817 6.26278 46.3817 6.63078C46.3817 7.08678 46.2617 7.45078 46.0217 7.72278C45.7897 7.98678 45.5097 8.18678 45.1817 8.32278C44.8617 8.45078 44.5377 8.53078 44.2097 8.56278C43.8817 8.60278 43.6217 8.62278 43.4297 8.62278C43.3177 8.62278 43.1697 8.61478 42.9857 8.59878C42.8017 8.58278 42.6057 8.55478 42.3977 8.51478C42.1897 8.46678 41.9777 8.40278 41.7617 8.32278C41.5537 8.24278 41.3577 8.13478 41.1737 7.99878C40.9977 7.86278 40.8497 7.69878 40.7297 7.50678C40.6097 7.31478 40.5377 7.08678 40.5137 6.82278L41.6537 6.61878Z" fill="#7D22FF"/>
</svg>
