<svg width="42" height="43" viewBox="0 0 42 43" fill="none" xmlns="http://www.w3.org/2000/svg">
<path d="M13.8286 38.5759L13.7834 38.5011C13.0434 37.2778 11.7178 36.5304 10.2881 36.5304H10.0955C7.65072 36.5304 5.66886 34.5485 5.66886 32.1038V31.491C5.66886 30.0884 4.92957 28.7896 3.72354 28.0735L3.13186 27.7222C1.49299 26.749 1.00689 24.5996 2.06753 23.016C2.78537 21.9442 2.81801 20.5538 2.15124 19.4495L2.00618 19.2092C0.953261 17.4654 1.47881 15.2003 3.19204 14.0983L3.67183 13.7896C4.91653 12.989 5.66886 11.6105 5.66886 10.1305V10.0466C5.66886 7.58847 7.66153 5.5958 10.1196 5.5958H10.3342C11.738 5.5958 13.0424 4.87138 13.7844 3.67971L14.0056 3.32443C15.063 1.6263 17.3199 1.11574 19.0264 2.15953C20.1773 2.86351 21.6445 2.86625 22.7878 2.1501C24.4559 1.10529 26.6554 1.61369 27.6958 3.28456L27.9499 3.69273C28.6869 4.87631 29.9825 5.5958 31.3767 5.5958H31.8299C34.2511 5.5958 36.2138 7.55854 36.2138 9.97969V10.2457C36.2138 11.6442 36.9585 12.9369 38.1682 13.6385L38.2512 13.6866C40.0524 14.7312 40.6745 17.0472 39.6662 18.8689C38.9908 20.0892 39.0396 21.5968 39.805 22.7628C40.9506 24.5079 40.4535 26.8524 38.6982 27.9824L38.204 28.3006C36.9635 29.0992 36.2138 30.4846 36.2138 31.96C36.2138 34.2928 34.3912 36.2389 32.062 36.3681L31.1337 36.4195C29.8828 36.4889 28.7468 37.1711 28.0977 38.2427L27.9408 38.5017C26.9542 40.1306 24.8432 40.6668 23.1987 39.7062C22.0862 39.0563 20.7059 39.0727 19.6092 39.749L19.3482 39.9099C17.4572 41.0759 14.9784 40.4768 13.8286 38.5759Z" fill="#E1FF26"/>
</svg>
