<svg width="79" height="36" viewBox="0 0 79 36" fill="none" xmlns="http://www.w3.org/2000/svg">
<path d="M18.374 10.1994C18.2332 11.4347 17.7954 12.4958 17.076 13.3827C16.3567 14.2538 15.3716 14.9348 14.1362 15.3941C12.9008 15.8534 11.4153 16.0909 9.71081 16.0909C8.27216 16.0909 6.97425 15.9167 5.7858 15.5841C4.59736 15.2515 3.58092 14.7447 2.72086 14.0796C1.8608 13.4144 1.20403 12.575 0.734906 11.5772C0.265782 10.5795 0.0312195 9.42332 0.0312195 8.07713C0.0312195 6.73095 0.265782 5.57481 0.734906 4.5612C1.20403 3.5476 1.87644 2.72405 2.72086 2.04304C3.58092 1.36203 4.59736 0.855226 5.7858 0.5068C6.97425 0.158375 8.2878 0 9.71081 0C11.4309 0 12.9008 0.237562 14.1518 0.712688C15.4028 1.18781 16.388 1.86883 17.1073 2.75573C17.8266 3.64263 18.2489 4.70374 18.374 5.97074H15.2621C15.0588 5.30557 14.7148 4.71958 14.23 4.24445C13.7453 3.75349 13.1354 3.38923 12.3848 3.13583C11.6342 2.88243 10.7272 2.75573 9.69517 2.75573C8.39726 2.75573 7.27136 2.96162 6.30184 3.35755C5.33232 3.76933 4.56608 4.35532 4.03441 5.14719C3.50274 5.93907 3.2369 6.90516 3.2369 8.07713C3.2369 9.24911 3.50274 10.1835 4.03441 10.9754C4.56608 11.7673 5.31668 12.3533 6.30184 12.7492C7.27136 13.161 8.41289 13.351 9.69517 13.351C10.7272 13.351 11.6186 13.2243 12.3692 12.9709C13.1198 12.7175 13.7296 12.3533 14.2144 11.8781C14.6992 11.403 15.0432 10.8487 15.2621 10.1994H18.374Z" fill="#FCFCD8"/>
<path d="M30.5088 16.0749C28.4759 16.0749 26.7402 15.7581 25.3015 15.1088C23.8629 14.4594 22.7683 13.5409 22.002 12.3531C21.2358 11.1652 20.8605 9.72402 20.8605 8.06108C20.8605 6.39815 21.2358 4.92526 22.002 3.73744C22.7683 2.54963 23.8629 1.63105 25.3015 0.981714C26.7402 0.332376 28.4759 0.015625 30.5088 0.015625V2.75552C29.2734 2.75552 28.1632 2.94557 27.178 3.3415C26.2085 3.73744 25.4423 4.32343 24.895 5.09947C24.3477 5.87551 24.0662 6.87327 24.0662 8.06108C24.0662 9.2489 24.3477 10.2467 24.895 11.0227C25.4423 11.7987 26.2085 12.3847 27.178 12.7648C28.1476 13.1449 29.2578 13.335 30.5088 13.335V16.0749Z" fill="#FCFCD8"/>
<path d="M51.0563 0C53.0891 0 54.8249 0.31675 56.2635 0.966088C57.7022 1.61543 58.7968 2.534 59.5631 3.72182C60.3293 4.90963 60.7046 6.35084 60.7046 8.01378C60.7046 9.67672 60.3293 11.1496 59.5631 12.3374C58.7968 13.5252 57.7022 14.4438 56.2635 15.0932C54.8249 15.7425 53.0891 16.0592 51.0563 16.0592V13.3194C52.2916 13.3194 53.4019 13.1293 54.387 12.7334C55.3566 12.3374 56.1228 11.7514 56.6701 10.9754C57.2174 10.1994 57.4989 9.2016 57.4989 8.01378C57.4989 6.82597 57.2174 5.82821 56.6701 5.05217C56.1228 4.27613 55.3566 3.69014 54.387 3.31004C53.4175 2.92994 52.3073 2.73989 51.0563 2.73989V0Z" fill="#FCFCD8"/>
<path d="M9.64831 35.0798C7.61544 35.0798 5.87968 34.763 4.44104 34.1137C3.00239 33.4643 1.90777 32.5457 1.14153 31.3579C0.375298 30.1701 0 28.7289 0 27.066C0 25.403 0.375298 23.9301 1.14153 22.7423C1.90777 21.5545 3.00239 20.6359 4.44104 19.9866C5.87968 19.3373 7.61544 19.0205 9.64831 19.0205C11.6812 19.0205 13.4326 19.3373 14.8556 19.9866C16.2786 20.6359 17.3888 21.5545 18.1394 22.7423C18.89 23.9301 19.281 25.3714 19.281 27.066C19.281 28.7606 18.9057 30.1701 18.1394 31.3579C17.3732 32.5457 16.2786 33.4643 14.8556 34.1137C13.4326 34.763 11.6812 35.0798 9.64831 35.0798ZM9.64831 32.324C10.8993 32.324 12.0096 32.134 12.9634 31.7539C13.9173 31.3738 14.6679 30.7878 15.1996 30.0117C15.7313 29.2357 16.0128 28.2379 16.0128 27.0501C16.0128 25.8623 15.7469 24.8646 15.1996 24.0885C14.6523 23.3125 13.9017 22.7265 12.9634 22.3305C12.0096 21.9346 10.8993 21.7446 9.64831 21.7446C8.39731 21.7446 7.30269 21.9346 6.31753 22.3305C5.34801 22.7265 4.58177 23.3125 4.03446 24.0885C3.48715 24.8646 3.20568 25.8623 3.20568 27.0501C3.20568 28.2379 3.48715 29.2357 4.03446 30.0117C4.58177 30.7878 5.34801 31.3738 6.31753 31.7539C7.28705 32.134 8.39731 32.324 9.64831 32.324Z" fill="#FCFCD8"/>
<path d="M20.9384 34.7631L28.1004 19.3057H31.4937L38.7338 34.7631H35.3092L29.0386 20.8419H30.5398L24.3161 34.7631H20.9228H20.9384ZM24.7383 31.3897V28.7448H34.8401V31.3897H24.7383Z" fill="#FCFCD8"/>
<path d="M39.7348 29.5529H42.9248C42.9874 30.0914 43.2376 30.5823 43.6598 31.0258C44.0977 31.4692 44.6606 31.8018 45.3643 32.0552C46.068 32.3086 46.8655 32.4195 47.7412 32.4195C48.5387 32.4195 49.1955 32.3244 49.7271 32.1502C50.2432 31.976 50.6341 31.7226 50.8843 31.4059C51.1345 31.0891 51.2596 30.709 51.2596 30.2656C51.2596 29.8221 51.1032 29.5054 50.7905 29.2678C50.4777 29.0302 49.9773 28.8402 49.3049 28.6977C48.6325 28.5393 47.7412 28.3967 46.6466 28.2384C45.7865 28.1117 44.9577 27.9375 44.1915 27.6999C43.4252 27.4623 42.7372 27.1773 42.1586 26.7972C41.58 26.4171 41.1109 25.9736 40.7669 25.451C40.4228 24.9125 40.2665 24.279 40.2665 23.5505C40.2665 22.6477 40.5167 21.84 41.0327 21.159C41.5487 20.478 42.2993 19.9395 43.3158 19.5594C44.3322 19.1793 45.5519 18.9893 47.0218 18.9893C49.2267 18.9893 50.9156 19.4644 52.104 20.4146C53.2925 21.3649 53.8711 22.6636 53.8398 24.3265H50.7748C50.7123 23.3921 50.3214 22.7111 49.602 22.2993C48.8827 21.8875 47.9914 21.6816 46.8968 21.6816C45.896 21.6816 45.0672 21.84 44.4104 22.1409C43.7536 22.4418 43.4252 22.9645 43.4252 23.693C43.4252 23.9781 43.5034 24.2315 43.6598 24.4532C43.8162 24.6749 44.082 24.8491 44.4573 25.0075C44.8326 25.1659 45.3486 25.3243 45.9898 25.4668C46.6309 25.6093 47.4284 25.7519 48.398 25.8944C49.2893 26.0211 50.1024 26.1953 50.8374 26.4012C51.5724 26.6071 52.1978 26.8922 52.7295 27.2406C53.2612 27.589 53.6678 28.0166 53.9492 28.5393C54.2307 29.0619 54.3715 29.7113 54.3715 30.4715C54.3715 31.4059 54.1369 32.2294 53.6521 32.9263C53.1674 33.6231 52.4324 34.1616 51.4316 34.5417C50.4308 34.9218 49.1485 35.1118 47.5535 35.1118C46.4276 35.1118 45.4268 34.9851 44.5511 34.7476C43.6911 34.4942 42.9405 34.1774 42.315 33.7498C41.6895 33.338 41.1734 32.8788 40.7825 32.3878C40.3916 31.8968 40.1101 31.4059 39.9381 30.8991C39.7661 30.4081 39.7035 29.9647 39.7348 29.5687V29.5529Z" fill="#FCFCD8"/>
<path d="M57.5615 19.3057H60.7046V34.7631H57.5615V19.3057Z" fill="#FCFCD8"/>
<path d="M63.7382 29.5529H66.9283C66.9908 30.0914 67.241 30.5823 67.6633 31.0258C68.1011 31.4692 68.664 31.8018 69.3677 32.0552C70.0714 32.3086 70.8689 32.4195 71.7446 32.4195C72.5421 32.4195 73.1989 32.3244 73.7306 32.1502C74.2466 31.976 74.6376 31.7226 74.8877 31.4059C75.1379 31.0891 75.2631 30.709 75.2631 30.2656C75.2631 29.8221 75.1067 29.5054 74.7939 29.2678C74.4812 29.0302 73.9808 28.8402 73.3084 28.6977C72.636 28.5393 71.7446 28.3967 70.65 28.2384C69.7899 28.1117 68.9612 27.9375 68.1949 27.6999C67.4287 27.4623 66.7406 27.1773 66.1621 26.7972C65.5835 26.4171 65.1143 25.9736 64.7703 25.451C64.4263 24.9125 64.2699 24.279 64.2699 23.5505C64.2699 22.6477 64.5201 21.84 65.0362 21.159C65.5522 20.478 66.3028 19.9395 67.3192 19.5594C68.3357 19.1793 69.5554 18.9893 71.0253 18.9893C73.2302 18.9893 74.919 19.4644 76.1075 20.4146C77.2959 21.3649 77.8745 22.6636 77.8432 24.3265H74.7783C74.7157 23.3921 74.3248 22.7111 73.6055 22.2993C72.8862 21.8875 71.9948 21.6816 70.9002 21.6816C69.8994 21.6816 69.0706 21.84 68.4138 22.1409C67.7571 22.4418 67.4287 22.9645 67.4287 23.693C67.4287 23.9781 67.5069 24.2315 67.6633 24.4532C67.8196 24.6749 68.0855 24.8491 68.4608 25.0075C68.8361 25.1659 69.3521 25.3243 69.9932 25.4668C70.6344 25.6093 71.4319 25.7519 72.4014 25.8944C73.2927 26.0211 74.1059 26.1953 74.8408 26.4012C75.5758 26.6071 76.2013 26.8922 76.733 27.2406C77.2646 27.589 77.6712 28.0166 77.9527 28.5393C78.2342 29.0619 78.3749 29.7113 78.3749 30.4715C78.3749 31.4059 78.1403 32.2294 77.6556 32.9263C77.1708 33.6231 76.4359 34.1616 75.4351 34.5417C74.4343 34.9218 73.152 35.1118 71.557 35.1118C70.4311 35.1118 69.4303 34.9851 68.5546 34.7476C67.6945 34.4942 66.9439 34.1774 66.3184 33.7498C65.6929 33.338 65.1769 32.8788 64.786 32.3878C64.395 31.8968 64.1135 31.4059 63.9415 30.8991C63.7695 30.4081 63.707 29.9647 63.7382 29.5687V29.5529Z" fill="#FCFCD8"/>
<path d="M51.3066 0H30.1961V2.75573H51.3066V0Z" fill="#FCFCD8"/>
<path d="M51.3066 13.3193H30.1961V16.0751H51.3066V13.3193Z" fill="#FCFCD8"/>
</svg>
