<svg width="58" height="58" viewBox="0 0 58 58" fill="none" xmlns="http://www.w3.org/2000/svg">
<g filter="url(#filter0_b_3717_35493)">
<rect x="-0.00390625" y="0.140625" width="57.5791" height="57.5791" rx="28.7896" fill="#676767" fill-opacity="0.48"/>
<rect x="0.246094" y="0.390625" width="57.0791" height="57.0791" rx="28.5396" stroke="#014F59" stroke-opacity="0.09" stroke-width="0.5"/>
<path d="M39.0718 29.6757C38.7908 29.6757 38.5214 29.5641 38.3227 29.3654C38.1241 29.1667 38.0124 28.8973 38.0124 28.6163V25.6247C38.0124 21.3873 34.0971 17.9973 29.2833 17.9973C24.4696 17.9973 20.5543 21.4296 20.5543 25.6247V28.6163C20.5543 28.8973 20.4426 29.1667 20.244 29.3654C20.0453 29.5641 19.7759 29.6757 19.4949 29.6757C19.2139 29.6757 18.9445 29.5641 18.7458 29.3654C18.5472 29.1667 18.4355 28.8973 18.4355 28.6163V25.6247C18.4355 20.2347 23.3086 15.8447 29.2833 15.8447C35.2581 15.8447 40.1312 20.2347 40.1312 25.6247V28.6163C40.1323 28.7557 40.1057 28.894 40.0528 29.023C40 29.1521 39.922 29.2693 39.8234 29.3679C39.7248 29.4665 39.6076 29.5445 39.4785 29.5973C39.3495 29.6502 39.2112 29.6768 39.0718 29.6757Z" fill="#E1FF26"/>
<path d="M36.2083 39.6425C35.9274 39.6425 35.6579 39.5309 35.4593 39.3322C35.2606 39.1336 35.149 38.8641 35.149 38.5831V28.5235C35.1578 28.2485 35.2733 27.9876 35.471 27.7962C35.6687 27.6049 35.9332 27.4979 36.2083 27.498C39.861 27.498 42.8357 30.2354 42.8357 33.5915C42.8357 36.9475 39.861 39.6425 36.2083 39.6425ZM37.2677 29.693V37.4136C38.1952 37.2601 39.0422 36.7938 39.6681 36.0924C40.294 35.3909 40.6611 34.4965 40.7085 33.5576C40.663 32.6172 40.2968 31.7207 39.6707 31.0175C39.0446 30.3144 38.1965 29.8469 37.2677 29.693ZM22.3265 39.6425C18.6739 39.6425 15.6992 36.9136 15.6992 33.5576C15.6992 30.2015 18.6739 27.498 22.3265 27.498C22.6075 27.498 22.877 27.6097 23.0756 27.8083C23.2743 28.007 23.3859 28.2764 23.3859 28.5574V38.5831C23.3859 38.8641 23.2743 39.1336 23.0756 39.3322C22.877 39.5309 22.6075 39.6425 22.3265 39.6425ZM21.2672 29.693C20.3384 29.8469 19.4903 30.3144 18.8642 31.0175C18.2381 31.7207 17.8719 32.6172 17.8264 33.5576C17.8737 34.4965 18.2409 35.3909 18.8668 36.0924C19.4927 36.7938 20.3397 37.2601 21.2672 37.4136V29.693Z" fill="#E1FF26"/>
<path d="M35.8609 43.0929H32.3523C32.0714 43.0929 31.8019 42.9813 31.6032 42.7826C31.4046 42.584 31.293 42.3145 31.293 42.0335C31.293 41.7526 31.4046 41.4831 31.6032 41.2845C31.8019 41.0858 32.0714 40.9742 32.3523 40.9742H35.8609C36.4093 40.9742 36.9353 40.7563 37.3231 40.3685C37.7109 39.9807 37.9288 39.4548 37.9288 38.9063V38.4402C37.9288 38.1593 38.0404 37.8898 38.2391 37.6911C38.4377 37.4925 38.7072 37.3809 38.9881 37.3809C39.2691 37.3809 39.5385 37.4925 39.7372 37.6911C39.9359 37.8898 40.0475 38.1593 40.0475 38.4402V38.9063C40.0475 40.0167 39.6064 41.0816 38.8213 41.8667C38.0361 42.6518 36.9713 43.0929 35.8609 43.0929Z" fill="#E1FF26"/>
<path d="M30.5386 45.0837H28.4453C27.6766 45.0837 26.9394 44.7784 26.3958 44.2348C25.8522 43.6912 25.5469 42.954 25.5469 42.1853V42.0667C25.5491 41.2994 25.8555 40.5644 26.3988 40.0227C26.9421 39.481 27.678 39.1768 28.4453 39.1768H30.5386C31.305 39.1768 32.0401 39.4812 32.582 40.0232C33.124 40.5652 33.4285 41.3002 33.4285 42.0667V42.1853C33.4285 42.9526 33.1243 43.6885 32.5826 44.2318C32.0408 44.7751 31.3058 45.0815 30.5386 45.0837ZM28.4622 41.2955C28.2569 41.2955 28.0599 41.3764 27.9139 41.5208C27.7679 41.6652 27.6848 41.8614 27.6825 42.0667V42.1853C27.6825 42.3921 27.7647 42.5904 27.9109 42.7366C28.0571 42.8829 28.2554 42.965 28.4622 42.965H30.5386C30.7439 42.9628 30.94 42.8797 31.0844 42.7337C31.2288 42.5877 31.3098 42.3907 31.3098 42.1853V42.0667C31.3098 41.8621 31.2285 41.666 31.0839 41.5214C30.9393 41.3767 30.7431 41.2955 30.5386 41.2955H28.4622Z" fill="#E1FF26"/>
</g>
<defs>
<filter id="filter0_b_3717_35493" x="-4.00391" y="-3.85938" width="65.5781" height="65.5791" filterUnits="userSpaceOnUse" color-interpolation-filters="sRGB">
<feFlood flood-opacity="0" result="BackgroundImageFix"/>
<feGaussianBlur in="BackgroundImageFix" stdDeviation="2"/>
<feComposite in2="SourceAlpha" operator="in" result="effect1_backgroundBlur_3717_35493"/>
<feBlend mode="normal" in="SourceGraphic" in2="effect1_backgroundBlur_3717_35493" result="shape"/>
</filter>
</defs>
</svg>
